<svg xmlns="http://www.w3.org/2000/svg" width="41" height="28.165" viewBox="0 0 41 28.165">
  <path id="quote-left" d="M32.429,13.966A8.724,8.724,0,0,0,27.5,15.487C30.56,6.859,37.421,5.846,37.776,5.8L37.47,3.336c-.127.015-12.737,1.749-13.823,19.195l.037,0c0,.067-.02.134-.02.2a8.766,8.766,0,1,0,8.764-8.769Zm0,15.05a6.282,6.282,0,1,1,6.282-6.282A6.287,6.287,0,0,1,32.429,29.016ZM8.982,13.966a8.716,8.716,0,0,0-4.922,1.521C7.116,6.859,13.974,5.846,14.329,5.8l-.306-2.465C13.9,3.351,1.289,5.085.2,22.531l.037,0c0,.067-.02.134-.02.2a8.766,8.766,0,1,0,8.766-8.769Zm0,15.05a6.282,6.282,0,1,1,6.282-6.282A6.287,6.287,0,0,1,8.982,29.016Z" transform="translate(-0.198 -3.336)"/>
</svg>
