<svg xmlns="http://www.w3.org/2000/svg" width="41" height="28.166" viewBox="0 0 41 28.166">
  <path id="quote-left" d="M8.967,13.966a8.724,8.724,0,0,1,4.925,1.521C10.836,6.859,3.975,5.846,3.62,5.8l.306-2.465c.127.015,12.737,1.749,13.823,19.2l-.037,0c0,.067.02.134.02.2a8.767,8.767,0,1,1-8.764-8.769Zm0,15.05a6.282,6.282,0,1,0-6.282-6.282A6.287,6.287,0,0,0,8.967,29.016Zm23.447-15.05a8.716,8.716,0,0,1,4.922,1.521C34.28,6.859,27.422,5.846,27.067,5.8l.306-2.465c.127.015,12.735,1.749,13.826,19.2l-.037,0c0,.067.02.134.02.2a8.767,8.767,0,1,1-8.767-8.769Zm0,15.05a6.282,6.282,0,1,0-6.282-6.282A6.287,6.287,0,0,0,32.414,29.016Z" transform="translate(-0.198 -3.336)"/>
</svg>
