<svg xmlns="http://www.w3.org/2000/svg" xmlns:xlink="http://www.w3.org/1999/xlink" width="40" height="40" viewBox="0 0 40 40">
  <defs>
    <linearGradient id="linear-gradient" x1="0.161" y1="0.899" x2="1.133" gradientUnits="objectBoundingBox">
      <stop offset="0" stop-color="#f09376"/>
      <stop offset="1" stop-color="#f0db79"/>
    </linearGradient>
  </defs>
  <g id="Group_2618" data-name="Group 2618" transform="translate(-1286 -5789)">
    <circle id="Ellipse_310" data-name="Ellipse 310" cx="20" cy="20" r="20" transform="translate(1286 5789)" fill="url(#linear-gradient)"/>
    <path id="instagram" d="M13,0H4A4.012,4.012,0,0,0,0,4v9a4.012,4.012,0,0,0,4,4h9a4.012,4.012,0,0,0,4-4V4A4.012,4.012,0,0,0,13,0Zm3,13a3,3,0,0,1-3,3H4a3,3,0,0,1-3-3V7H4.207A4.691,4.691,0,0,0,3.75,9a4.75,4.75,0,0,0,9.5,0,4.691,4.691,0,0,0-.457-2H16ZM12.25,9A3.75,3.75,0,1,1,8.5,5.25,3.754,3.754,0,0,1,12.25,9Zm-.1-3a4.686,4.686,0,0,0-7.3,0H1V4A3,3,0,0,1,4,1h9a3,3,0,0,1,3,3V6Zm2.3-3.278v1.3a.544.544,0,0,1-.542.543H12.544A.546.546,0,0,1,12,4.02v-1.3a.544.544,0,0,1,.544-.543h1.368a.544.544,0,0,1,.542.543Z" transform="translate(1298 5801)" fill="#fff"/>
  </g>
</svg>
