<svg xmlns="http://www.w3.org/2000/svg" xmlns:xlink="http://www.w3.org/1999/xlink" width="40" height="40" viewBox="0 0 40 40">
  <defs>
    <linearGradient id="linear-gradient" x1="-0.492" y1="0.5" x2="1" y2="0.5" gradientUnits="objectBoundingBox">
      <stop offset="0" stop-color="#ff9ab6"/>
      <stop offset="0.989" stop-color="#f03295"/>
      <stop offset="1" stop-color="#f03295"/>
    </linearGradient>
  </defs>
  <g id="Group_2618" data-name="Group 2618" transform="translate(-1223 -5789)">
    <circle id="Ellipse_309" data-name="Ellipse 309" cx="20" cy="20" r="20" transform="translate(1223 5789)" fill="url(#linear-gradient)"/>
    <path id="linkedin" d="M.7,5.823H4.136V16.146H.7V5.823ZM2.438.854A1.791,1.791,0,0,0,.5,2.636,1.773,1.773,0,0,0,2.4,4.417h.021A1.787,1.787,0,1,0,2.438.854ZM12.552,5.583A3.388,3.388,0,0,0,9.458,7.292V5.823H6.031s.042.969,0,10.323H9.458V10.385a2.614,2.614,0,0,1,.114-.843,1.879,1.879,0,0,1,1.762-1.25c1.238,0,1.738.948,1.738,2.333v5.521H16.5V10.229C16.5,7.062,14.812,5.583,12.552,5.583Z" transform="translate(1234.5 5800.146)" fill="#fff"/>
  </g>
</svg>
